PathFileType	4	(X/Y/Z)	/Users/visionmauri/Downloads/Videos/OAW10-top_Sports2D/OAW10-top_Sports2D_m_person00.trc
DataRate	CameraRate	NumFrames	NumMarkers	Units	OrigDataRate	OrigDataStartFrame	OrigNumFrames
25.0	25.0	9	22	m	25.0	438	1754
Frame#	Time	Hip			RHip			RKnee			RAnkle			RBigToe			RSmallToe			RHeel			LHip			LKnee			LAnkle			LBigToe			LSmallToe			LHeel			Neck			Head			Nose			RShoulder			RElbow			RWrist			LShoulder			LElbow			LWrist			
		X1	Y1	Z1	X2	Y2	Z2	X3	Y3	Z3	X4	Y4	Z4	X5	Y5	Z5	X6	Y6	Z6	X7	Y7	Z7	X8	Y8	Z8	X9	Y9	Z9	X10	Y10	Z10	X11	Y11	Z11	X12	Y12	Z12	X13	Y13	Z13	X14	Y14	Z14	X15	Y15	Z15	X16	Y16	Z16	X17	Y17	Z17	X18	Y18	Z18	X19	Y19	Z19	X20	Y20	Z20	X21	Y21	Z21	X22	Y22	Z22
438	17.529994295493438	2.3166992812059903	-0.15858930177084068	0.0301	2.2152701669469104	-0.08232408375456789	0.0301	1.8675628662449415	-0.4211610565861358	0.129	1.4207235533947227	-0.777946548345316	0.023	1.3153068883686119	-0.8936357010201089	0.2179	1.2679270401130442	-0.8324443162452785	0.1804	1.376964010306916	-0.833448154172775	-0.0119	2.3985812164997813	-0.2653681251900156	0.0301	2.061474120393254	-0.5098205698302344	0.129	1.8151928741598036	-0.7528654540789999	0.023	1.6851237943266957	-0.8188406115914999	0.2179	1.7478021629467957	-0.8683631155581889	0.1804	1.789712493421349	-0.7713369034810383	-0.0119	2.834473976905364	0.34990887630927187	0.0008	3.08507421777164	0.6111465940628774	0.0655	2.863155701756895	0.41922207729012684	0.1076	2.6001536460830637	0.4971272713995797	-0.01275	2.329708451744467	0.2675218387067822	0.0702	2.133818130653078	0.03648561012730045	0.1076	2.9724910182073003	0.1301939647022959	-0.01275	2.81801218870583	-0.21567562116624428	0.0702	2.6208571064245034	-0.4722205385569863	0.1076
439	17.57001711351968	2.28551590511172	-0.16688926396885237	0.0301	2.1878839823728358	-0.09094207228666752	0.0301	1.843101415110742	-0.43815008469822436	0.129	1.392066215174337	-0.8039202832859482	0.023	1.2699004504154656	-0.9320108418025447	0.2179	1.2241168791707784	-0.8700880035798634	0.1804	1.3490715670737112	-0.8610249344113914	-0.0119	2.370895717948886	-0.2726650774584007	0.0301	2.0324091682684755	-0.5193277556045051	0.129	1.813761662976371	-0.7593902366255351	0.023	1.6729104075967065	-0.829893592052578	0.2179	1.7451131002314317	-0.8716182909994153	0.1804	1.7966118738779011	-0.7678202105100839	-0.0119	2.8123912921006964	0.34687406918367253	0.0008	3.0592520578601725	0.6151773014751966	0.0655	2.8425083204034696	0.42342854775678845	0.1076	2.5789617123633044	0.49515302549715123	-0.01275	2.300802606164007	0.2615216202499061	0.0702	2.1015379742939206	0.03724759399781378	0.1076	2.950688815341619	0.1275983362045257	-0.01275	2.79312390082129	-0.22759853185197074	0.0702	2.591689325711683	-0.48965135422572176	0.1076
440	17.61003993154592	2.2580391964374606	-0.17105296444754872	0.0301	2.164358652798615	-0.09232064130588179	0.0301	1.8171009366934938	-0.4491166025152305	0.129	1.3702036276862988	-0.823248988954971	0.023	1.2340489082151367	-0.9619090428407601	0.2179	1.1895613564939793	-0.8988078949062455	0.1804	1.329842537905603	-0.8812319935653209	-0.0119	2.3486953596310416	-0.27510255007667384	0.0301	2.005348278987133	-0.5275767349210785	0.129	1.813305049955836	-0.7588787375383826	0.023	1.6630481133055433	-0.8394383160660114	0.2179	1.746834991721852	-0.8725437708408607	0.1804	1.8071063472816975	-0.759785892253433	-0.0119	2.7873433706608957	0.3399656777103837	0.0008	3.031855331377095	0.6238353085109397	0.0655	2.8077243573447146	0.42077744774425485	0.1076	2.5559917592710977	0.49564237100028397	-0.01275	2.2671574346313146	0.25533769322566785	0.0702	2.0607310919568094	0.031865441821915926	0.1076	2.93036093000156	0.12102771898039588	-0.01275	2.7653049584874876	-0.24298493829369985	0.0702	2.556135006172739	-0.5084893078696912	0.1076
441	17.65006274957216	2.2328128388403066	-0.17241320549311998	0.0301	2.139253217643153	-0.0903489736515457	0.0301	1.7898491576493911	-0.45625842088761337	0.129	1.3530859621698617	-0.8349457699924901	0.023	1.2189391802373535	-0.9761424219614971	0.2179	1.1738602238094364	-0.9127949993799648	0.1804	1.3142212728818254	-0.8924818513398723	-0.0119	2.324959016145767	-0.27784887737810327	0.0301	1.9774133570761612	-0.5400539043502609	0.129	1.8154400655071317	-0.7456180433652198	0.023	1.6658143063852544	-0.8340522785880407	0.2179	1.7555922777526147	-0.8645627744789425	0.1804	1.8193784865097695	-0.74487793948444	-0.0119	2.769501872680968	0.3339854318982651	0.0008	3.0149483007659073	0.6231719751513568	0.0655	2.7753195856341075	0.40941371842314683	0.1076	2.535300474060459	0.4968195670400437	-0.01275	2.239447006562529	0.25974456016358916	0.0702	2.01907824780731	0.0337747887691914	0.1076	2.916599261352483	0.10880286004156303	-0.01275	2.7359413488190767	-0.2623835502321853	0.0702	2.513483887863331	-0.5272541598915091	0.1076
442	17.690085567598402	2.211040853015499	-0.17189329002943424	0.0301	2.1155497768285554	-0.08327428169047911	0.0301	1.7637359692075114	-0.461364340321494	0.129	1.3418619504933933	-0.8412944160774398	0.023	1.2157026508918343	-0.981341693141627	0.2179	1.1717496406895045	-0.9162911992207744	0.1804	1.2997437950046014	-0.9009907888771737	-0.0119	2.3032677634927112	-0.2788850635444733	0.0301	1.9425468969287274	-0.5617152859356866	0.129	1.8093899369766087	-0.7310085286463649	0.023	1.6626863043540736	-0.8331739229744523	0.2179	1.7506493379241352	-0.8607163685331884	0.1804	1.8136227182443183	-0.7311491443119909	-0.0119	2.756931485056494	0.32963243087576133	0.0008	3.012510919552666	0.6194799950829563	0.0655	2.75861654453141	0.39701246995320427	0.1076	2.5184556399254348	0.5016251946702793	-0.01275	2.2101614934063774	0.26945167871144104	0.0702	1.9725110875568472	0.04092454768160779	0.1076	2.9092327759156067	0.09782770253123321	-0.01275	2.7071778704753564	-0.280488946040649	0.0702	2.4683371707961266	-0.5455465222831658	0.1076
443	17.730108385624643	2.1977481028090957	-0.1699663607004242	0.0301	2.1011443107188135	-0.07196111384417267	0.0301	1.7403685944855887	-0.4677562225680148	0.129	1.3381436735422139	-0.8442905054007045	0.023	1.2106860339990437	-0.9871272966106971	0.2179	1.171930289961813	-0.9171252221880096	0.1804	1.287474640101303	-0.9090840951656848	-0.0119	2.2927920735243794	-0.27482310025303924	0.0301	1.90837967984139	-0.5866048233152633	0.129	1.7742150877744598	-0.7396637103257682	0.023	1.6206915902636345	-0.86544441019603	0.2179	1.7030908391668298	-0.8858064138974976	0.1804	1.7675834283140803	-0.7379517481796758	-0.0119	2.744465893139774	0.3295770226965879	0.0008	3.0192011547469186	0.6235853388811115	0.0655	2.752957210410139	0.3890308186922844	0.1076	2.5064073353204797	0.5129443350213102	-0.01275	2.174427106258226	0.27576752065186805	0.0702	1.9164027121782643	0.043333942947397966	0.1076	2.90602096690283	0.09481305028389304	-0.01275	2.6828504064448833	-0.289931646124104	0.0702	2.43118867135474	-0.5596519898909063	0.1076
444	17.770131203650884	2.1902416766964197	-0.17193884027737258	0.0301	2.0920963754914115	-0.07111607389769212	0.0301	1.7232338668318472	-0.4789217704170292	0.129	1.3391253344344474	-0.8453084585442902	0.023	1.20413410236201	-0.9937428904770217	0.2179	1.1701800446492245	-0.9188885081091174	0.1804	1.2825139031319526	-0.9104108355222916	-0.0119	2.286158254781701	-0.27348613467270616	0.0301	1.8846001828331065	-0.6095576933105985	0.129	1.7054649128774422	-0.7795567350408096	0.023	1.5370430374427544	-0.931158396415047	0.2179	1.614496731843625	-0.9466773573185217	0.1804	1.680166173894831	-0.7788570429305071	-0.0119	2.7360074006423325	0.3381251284362644	0.0008	3.0292025716675193	0.6294785512199228	0.0655	2.753522370395811	0.3868789163281457	0.1076	2.4993380796123446	0.5252329411149799	-0.01275	2.1420070780235188	0.2832104850897035	0.0702	1.8594122758617693	0.04154071760084848	0.1076	2.9040778355572825	0.09506663759311458	-0.01275	2.6641753692450703	-0.29188227017935753	0.0702	2.4077443330955215	-0.5656608843591976	0.1076
445	17.810154021677125	2.179127916544708	-0.18345968269741403	0.0301	2.0778517943836627	-0.09034727694214353	0.0301	1.7127658194796245	-0.49319385701216983	0.129	1.3404852749136194	-0.8447965257509195	0.023	1.2030021336153587	-0.9983647932985387	0.2179	1.1688965497855324	-0.9207671961502678	0.1804	1.2887650812564504	-0.9013496031697008	-0.0119	2.2694868055211894	-0.2842110550044032	0.0301	1.8621723660009533	-0.6336575641011949	0.129	1.615375262927054	-0.840773925688529	0.023	1.43560075064101	-1.0102503938639817	0.2179	1.5106667964110638	-1.0294882159789744	0.1804	1.57107207636314	-0.8495375065226273	-0.0119	2.7344379753647443	0.3484648353976225	0.0008	3.0386643945917897	0.6249132627743408	0.0655	2.758291220924857	0.3835572670050817	0.1076	2.49400070561262	0.5297100940258088	-0.01275	2.116046353161638	0.297453017335317	0.0702	1.8117318684460353	0.04196154637495024	0.1076	2.8989421688422703	0.09054214853148995	-0.01275	2.6496954225628344	-0.2936098166581608	0.0702	2.3934818966846896	-0.5645116985876081	0.1076
446	17.850176839703366	2.1617908819661937	-0.20126670003981406	0.0301	2.0591467796173313	-0.11519891023528787	0.0301	1.701233267496558	-0.5065560835831996	0.129	1.3408460050722992	-0.8443961372708394	0.023	1.2031494458004406	-0.9996643344060966	0.2179	1.1685722477905929	-0.9213234393618905	0.1804	1.3015585617623207	-0.8926518291197736	-0.0119	2.247593013313305	-0.3020540991584608	0.0301	1.8297496073481496	-0.6580334047788159	0.129	1.5126174651616178	-0.9200115116725266	0.023	1.331598704050281	-1.0883450868226536	0.2179	1.405486340512905	-1.119658152446537	0.1804	1.455792869630058	-0.9407957807695998	-0.0119	2.729215041462824	0.34578959350942434	0.0008	3.0420893679565757	0.6116380326375856	0.0655	2.7572163703223125	0.3713727837315296	0.1076	2.4836039194410797	0.52535194999375	-0.01275	2.0898515745553827	0.3116530871528114	0.0702	1.7720025733415035	0.04673141925079562	0.1076	2.8891863462962064	0.08118482618095878	-0.01275	2.640008110237887	-0.2963182601689647	0.0702	2.383130344334796	-0.5573390227224049	0.1076
